<svg width="16" height="16" viewBox="0 0 16 16" fill="none" xmlns="http://www.w3.org/2000/svg">
<path d="M6.66665 10.6667V10H2.00665L1.99998 12.6667C1.99998 13.4067 2.59331 14 3.33331 14H12.6666C13.4066 14 14 13.4067 14 12.6667V10H9.33331V10.6667H6.66665ZM13.3333 4.66667H10.66V3.33333L9.32665 2H6.65998L5.32665 3.33333V4.66667H2.66665C1.93331 4.66667 1.33331 5.26667 1.33331 6V8C1.33331 8.74 1.92665 9.33333 2.66665 9.33333H6.66665V8H9.33331V9.33333H13.3333C14.0666 9.33333 14.6666 8.73333 14.6666 8V6C14.6666 5.26667 14.0666 4.66667 13.3333 4.66667ZM9.33331 4.66667H6.66665V3.33333H9.33331V4.66667Z" fill="white"/>
</svg>
