<svg width="16" height="16" viewBox="0 0 16 16" fill="none" xmlns="http://www.w3.org/2000/svg">
<path fill-rule="evenodd" clip-rule="evenodd" d="M11.1133 8.75342C12.0267 9.37342 12.6667 10.2134 12.6667 11.3334V13.3334H15.3333V11.3334C15.3333 9.88008 12.9533 9.02008 11.1133 8.75342Z" fill="white"/>
<path d="M6.00004 8.00008C7.4728 8.00008 8.66671 6.80617 8.66671 5.33341C8.66671 3.86066 7.4728 2.66675 6.00004 2.66675C4.52728 2.66675 3.33337 3.86066 3.33337 5.33341C3.33337 6.80617 4.52728 8.00008 6.00004 8.00008Z" fill="white"/>
<path fill-rule="evenodd" clip-rule="evenodd" d="M10 8.00008C11.4733 8.00008 12.6667 6.80675 12.6667 5.33341C12.6667 3.86008 11.4733 2.66675 10 2.66675C9.68668 2.66675 9.39334 2.73341 9.11334 2.82675C9.66668 3.51341 10 4.38675 10 5.33341C10 6.28008 9.66668 7.15341 9.11334 7.84008C9.39334 7.93341 9.68668 8.00008 10 8.00008Z" fill="white"/>
<path fill-rule="evenodd" clip-rule="evenodd" d="M6.00002 8.66675C4.22002 8.66675 0.666687 9.56008 0.666687 11.3334V13.3334H11.3334V11.3334C11.3334 9.56008 7.78002 8.66675 6.00002 8.66675Z" fill="white"/>
</svg>
