<svg width="16" height="16" viewBox="0 0 16 16" fill="none" xmlns="http://www.w3.org/2000/svg">
<path d="M12 4.00016H10.6667C10.6667 2.52683 9.47335 1.3335 8.00002 1.3335C6.52669 1.3335 5.33335 2.52683 5.33335 4.00016H4.00002C3.26669 4.00016 2.66669 4.60016 2.66669 5.3335V13.3335C2.66669 14.0668 3.26669 14.6668 4.00002 14.6668H12C12.7334 14.6668 13.3334 14.0668 13.3334 13.3335V5.3335C13.3334 4.60016 12.7334 4.00016 12 4.00016ZM6.66669 6.66683C6.66669 7.0335 6.36669 7.3335 6.00002 7.3335C5.63335 7.3335 5.33335 7.0335 5.33335 6.66683V5.3335H6.66669V6.66683ZM8.00002 2.66683C8.73335 2.66683 9.33335 3.26683 9.33335 4.00016H6.66669C6.66669 3.26683 7.26669 2.66683 8.00002 2.66683ZM10.6667 6.66683C10.6667 7.0335 10.3667 7.3335 10 7.3335C9.63335 7.3335 9.33335 7.0335 9.33335 6.66683V5.3335H10.6667V6.66683Z" fill="white"/>
</svg>
