<svg width="16" height="16" viewBox="0 0 16 16" fill="none" xmlns="http://www.w3.org/2000/svg">
<path d="M0.666687 14.0001H3.33335V6.00008H0.666687V14.0001ZM15.3334 6.66675C15.3334 5.93341 14.7334 5.33341 14 5.33341H9.79335L10.4267 2.28675L10.4467 2.07341C10.4467 1.80008 10.3334 1.54675 10.1534 1.36675L9.44669 0.666748L5.06002 5.06008C4.81335 5.30008 4.66669 5.63341 4.66669 6.00008V12.6667C4.66669 13.4001 5.26669 14.0001 6.00002 14.0001H12C12.5534 14.0001 13.0267 13.6667 13.2267 13.1867L15.24 8.48675C15.3 8.33341 15.3334 8.17341 15.3334 8.00008V6.66675Z" fill="white"/>
</svg>
