<svg width="48" height="49" viewBox="0 0 48 49" fill="none" xmlns="http://www.w3.org/2000/svg">
<rect y="0.5" width="48" height="48" rx="24" fill="#E58585" fill-opacity="0.1"/>
<g clip-path="url(#clip0_110_21509)">
<path d="M29.8301 14.502H18.1658C15.8651 14.502 14 16.367 14 18.6678C14 20.0482 15.1191 21.1673 16.4995 21.1673H31.4965C32.8123 21.1833 33.9106 20.1667 33.996 18.8535C34.0963 16.5527 32.3124 14.6062 30.0116 14.5059C29.9511 14.5032 29.8906 14.502 29.8301 14.502Z" fill="#E58585"/>
<path d="M32.3296 22.8335H15.6663C15.2062 22.8335 14.8332 23.2065 14.8332 23.6666V30.332C14.8359 32.6316 16.6994 34.4951 18.999 34.4978H28.997C31.2966 34.4951 33.1601 32.6316 33.1628 30.332V23.6666C33.1628 23.2065 32.7898 22.8335 32.3296 22.8335ZM26.4975 26.9993H21.4985C21.0383 26.9993 20.6653 26.6263 20.6653 26.1662C20.6653 25.706 21.0383 25.333 21.4985 25.333H26.4975C26.9576 25.333 27.3306 25.706 27.3306 26.1662C27.3306 26.6263 26.9576 26.9993 26.4975 26.9993Z" fill="#E58585"/>
</g>
<defs>
<clipPath id="clip0_110_21509">
<rect width="20" height="20" fill="white" transform="translate(14 14.5)"/>
</clipPath>
</defs>
</svg>
