<svg width="49" height="49" viewBox="0 0 49 49" fill="none" xmlns="http://www.w3.org/2000/svg">
<rect x="0.5" y="0.5" width="48" height="48" rx="24" fill="#E58585" fill-opacity="0.1"/>
<g clip-path="url(#clip0_110_21642)">
<path d="M29.25 24.5C26.4883 24.5 24.25 26.7383 24.25 29.5C24.25 32.2617 26.4883 34.5 29.25 34.5C32.0117 34.5 34.25 32.2617 34.25 29.5C34.25 26.7383 32.0117 24.5 29.25 24.5ZM31.91 29.6683L30.0658 31.4383C29.6892 31.81 29.1892 31.9975 28.6883 31.9975C28.1875 31.9975 27.6858 31.81 27.3025 31.4358L26.3592 30.5117C26.03 30.1892 26.0258 29.6617 26.3475 29.3333C26.6692 29.0033 27.1967 28.9992 27.5258 29.3217L28.4683 30.245C28.5883 30.3633 28.7842 30.3608 28.9033 30.2433L30.7558 28.465C31.0867 28.1467 31.615 28.1558 31.9342 28.4892C32.2525 28.8208 32.2417 29.3492 31.91 29.6683ZM22.5833 29.5C22.5833 27.5083 23.4567 25.7217 24.8408 24.5H18.4167C17.9558 24.5 17.5833 24.1275 17.5833 23.6667C17.5833 23.2058 17.9558 22.8333 18.4167 22.8333H25.0833C25.5442 22.8333 25.9167 23.2058 25.9167 23.6667C25.9167 23.6867 25.9158 23.7067 25.9142 23.7267C26.895 23.1583 28.0342 22.8333 29.25 22.8333V18.6667C29.25 16.3692 27.3808 14.5 25.0833 14.5H18.4167C16.1192 14.5 14.25 16.3692 14.25 18.6667V30.3333C14.25 32.6308 16.1192 34.5 18.4167 34.5H24.8408C23.4567 33.2783 22.5833 31.4917 22.5833 29.5ZM18.4167 18.6667H25.0833C25.5442 18.6667 25.9167 19.0392 25.9167 19.5C25.9167 19.9608 25.5442 20.3333 25.0833 20.3333H18.4167C17.9558 20.3333 17.5833 19.9608 17.5833 19.5C17.5833 19.0392 17.9558 18.6667 18.4167 18.6667ZM20.0833 28.6667H18.4167C17.9558 28.6667 17.5833 28.2942 17.5833 27.8333C17.5833 27.3725 17.9558 27 18.4167 27H20.0833C20.5442 27 20.9167 27.3725 20.9167 27.8333C20.9167 28.2942 20.5442 28.6667 20.0833 28.6667Z" fill="#E58585"/>
</g>
<defs>
<clipPath id="clip0_110_21642">
<rect width="20" height="20" fill="white" transform="translate(14.25 14.5)"/>
</clipPath>
</defs>
</svg>
