<svg width="16" height="16" viewBox="0 0 16 16" fill="none" xmlns="http://www.w3.org/2000/svg">
<path d="M14.2733 7.71992L8.27331 1.71992C8.03331 1.47992 7.69998 1.33325 7.33331 1.33325H2.66665C1.93331 1.33325 1.33331 1.93325 1.33331 2.66659V7.33325C1.33331 7.69992 1.47998 8.03325 1.72665 8.27992L7.72665 14.2799C7.96665 14.5199 8.29998 14.6666 8.66665 14.6666C9.03331 14.6666 9.36665 14.5199 9.60665 14.2733L14.2733 9.60659C14.52 9.36659 14.6666 9.03325 14.6666 8.66659C14.6666 8.29992 14.5133 7.95992 14.2733 7.71992ZM3.66665 4.66659C3.11331 4.66659 2.66665 4.21992 2.66665 3.66659C2.66665 3.11325 3.11331 2.66659 3.66665 2.66659C4.21998 2.66659 4.66665 3.11325 4.66665 3.66659C4.66665 4.21992 4.21998 4.66659 3.66665 4.66659Z" fill="white"/>
</svg>
