<svg width="50" height="50" viewBox="0 0 50 50" fill="none" xmlns="http://www.w3.org/2000/svg">
<rect width="50" height="50" rx="25" fill="#E58585"/>
<path d="M31.5681 24.0625H28.525C27.8489 24.0625 27.1807 23.9162 26.5664 23.6337C25.9522 23.3511 25.4063 22.939 24.9662 22.4257L22.1462 19.1369C21.7062 18.6236 21.1603 18.2115 20.5461 17.9289C19.9318 17.6464 19.2636 17.5001 18.5875 17.5H14.6875C14.4389 17.5 14.2004 17.5988 14.0246 17.7746C13.8488 17.9505 13.75 18.1889 13.75 18.4375C13.75 18.6862 13.8488 18.9246 14.0246 19.1005C14.2004 19.2763 14.4389 19.375 14.6875 19.375H18.5875C18.9933 19.3751 19.3942 19.4629 19.7629 19.6325C20.1315 19.8021 20.4591 20.0494 20.7231 20.3575L23.5412 23.6463C24.0044 24.1863 24.5481 24.64 25.1444 25C24.5408 25.3623 23.9995 25.8194 23.5412 26.3538L20.725 29.6425C20.4608 29.9509 20.1329 30.1984 19.7639 30.368C19.3949 30.5376 18.9936 30.6253 18.5875 30.625H14.6875C14.4389 30.625 14.2004 30.7238 14.0246 30.8996C13.8488 31.0754 13.75 31.3139 13.75 31.5625C13.75 31.8112 13.8488 32.0496 14.0246 32.2255C14.2004 32.4013 14.4389 32.5 14.6875 32.5H18.5875C19.2636 32.5 19.9318 32.3537 20.5461 32.0712C21.1603 31.7886 21.7062 31.3765 22.1462 30.8632L24.9662 27.5744C25.4063 27.0611 25.9522 26.649 26.5664 26.3664C27.1807 26.0839 27.8489 25.9376 28.525 25.9375H33.2744L28.975 30.9532C28.8134 31.1421 28.7335 31.3876 28.7528 31.6355C28.7721 31.8834 28.8892 32.1134 29.0781 32.275C29.2671 32.4367 29.5125 32.5166 29.7604 32.4973C30.0083 32.4779 30.2384 32.3609 30.4 32.1719L36.025 25.6094C36.1702 25.4396 36.2501 25.2235 36.2501 25C36.2501 24.7766 36.1702 24.5605 36.025 24.3907L30.4 17.8282C30.2384 17.6392 30.0083 17.5222 29.7604 17.5028C29.5125 17.4835 29.2671 17.5634 29.0781 17.725C28.8892 17.8867 28.7721 18.1167 28.7528 18.3646C28.7335 18.6125 28.8134 18.858 28.975 19.0469L33.2744 24.0625H31.5681Z" fill="white"/>
</svg>
