<svg width="117" height="118" viewBox="0 0 117 118" fill="none" xmlns="http://www.w3.org/2000/svg">
<g clip-path="url(#clip0_448_23640)">
<path d="M58.4986 0C67.5703 0 76.1551 2.08495 83.8257 5.80377C80.6859 8.30972 77.7747 10.7154 75.0621 13.0309C69.8953 11.1364 64.3212 10.104 58.5085 10.104C45.1246 10.104 33.0025 15.577 24.2389 24.428C15.4653 33.279 10.0402 45.498 10.0402 59C10.0402 72.502 15.4653 84.721 24.2389 93.572C33.0125 102.423 45.1246 107.896 58.5085 107.896C71.8925 107.896 84.0145 102.423 92.7782 93.572C101.552 84.721 106.977 72.502 106.977 59C106.977 55.7924 106.669 52.6449 106.083 49.6077C108.596 46.2999 111.17 43.002 113.803 39.7343C115.87 45.7686 116.992 52.254 116.992 59C116.992 75.2887 110.445 90.0437 99.8626 100.719C89.2807 111.394 74.6547 118 58.5085 118C42.3624 118 27.7364 111.394 17.1544 100.719C6.56255 90.0437 0.0146484 75.2887 0.0146484 59C0.0146484 42.7113 6.56255 27.9563 17.1445 17.281C27.7265 6.60567 42.3524 0 58.4986 0ZM31.2538 49.307L45.522 49.1165L46.5852 49.3972C49.4667 51.0712 52.1792 52.9857 54.7129 55.1509C56.5412 56.7146 58.2899 58.4186 59.9493 60.263C65.0664 51.9533 70.5213 44.3252 76.2842 37.3085C82.5937 29.6203 89.2906 22.6437 96.3254 16.2786L97.7164 15.7373H113.286L110.147 19.2557C100.499 30.0714 91.7448 41.2479 83.8357 52.7752C75.9265 64.3126 68.852 76.2209 62.5625 88.4799L60.6051 92.289L58.8066 88.4098C55.488 81.2227 51.5135 74.6271 46.774 68.7331C42.0345 62.8391 36.5199 57.6067 30.0913 53.1561L31.2538 49.307Z" fill="#20C9AC"/>
</g>
<defs>
<clipPath id="clip0_448_23640">
<rect width="116.968" height="118" fill="white" transform="translate(0.0146484)"/>
</clipPath>
</defs>
</svg>
