<svg width="364" height="215" viewBox="0 0 364 215" fill="none" xmlns="http://www.w3.org/2000/svg">
<g clip-path="url(#clip0_39_17)">
<rect x="28" width="309" height="188" rx="10" fill="url(#paint0_linear_39_17)"/>
<g style="mix-blend-mode:soft-light">
<path d="M396.316 88C278.007 87.1534 220.81 28.0324 207 -1.42233V-12.534L320.799 -21L411 -1.42233L396.316 88Z" fill="#222222"/>
</g>
<g style="mix-blend-mode:soft-light">
<path d="M25.4036 94C149.513 94.8932 209.513 157.269 224 188.345V200.068L104.622 209L10 188.345L25.4036 94Z" fill="#222222"/>
</g>
</g>
<g clip-path="url(#clip1_39_17)">
<rect x="14" y="14" width="337" height="188" rx="10" fill="url(#paint1_linear_39_17)"/>
<g style="mix-blend-mode:soft-light">
<path d="M382.316 102C264.007 101.153 206.81 42.0324 193 12.5777V1.46602L306.799 -7L397 12.5777L382.316 102Z" fill="#222222"/>
</g>
<g style="mix-blend-mode:soft-light">
<path d="M11.4036 108C135.513 108.893 195.513 171.269 210 202.345V214.068L90.6221 223L-4 202.345L11.4036 108Z" fill="#222222"/>
</g>
</g>
<g clip-path="url(#clip2_39_17)">
<rect y="27" width="364" height="188" rx="10" fill="url(#paint2_linear_39_17)"/>
<g style="mix-blend-mode:soft-light">
<path d="M368.316 115C250.007 114.153 192.81 55.0324 179 25.5777V14.466L292.799 6L383 25.5777L368.316 115Z" fill="#222222"/>
</g>
<g style="mix-blend-mode:soft-light">
<path d="M-2.59639 121C121.513 121.893 181.513 184.269 196 215.345V227.068L76.6221 236L-18 215.345L-2.59639 121Z" fill="#222222"/>
</g>
</g>
<defs>
<linearGradient id="paint0_linear_39_17" x1="14.4548" y1="-6.42622e-06" x2="770.475" y2="345.278" gradientUnits="userSpaceOnUse">
<stop offset="0.0183936" stop-color="#209D04"/>
<stop offset="1" stop-color="#222222"/>
</linearGradient>
<linearGradient id="paint1_linear_39_17" x1="-0.772599" y1="14" x2="797.651" y2="411.686" gradientUnits="userSpaceOnUse">
<stop offset="0.0183936" stop-color="#FFD200"/>
<stop offset="1" stop-color="#222222"/>
</linearGradient>
<linearGradient id="paint2_linear_39_17" x1="-15.9562" y1="27" x2="818.783" y2="476.086" gradientUnits="userSpaceOnUse">
<stop offset="0.0183936" stop-color="#FE0000"/>
<stop offset="1" stop-color="#222222"/>
</linearGradient>
<clipPath id="clip0_39_17">
<rect x="28" width="309" height="188" rx="10" fill="white"/>
</clipPath>
<clipPath id="clip1_39_17">
<rect x="14" y="14" width="337" height="188" rx="10" fill="white"/>
</clipPath>
<clipPath id="clip2_39_17">
<rect y="27" width="364" height="188" rx="10" fill="white"/>
</clipPath>
</defs>
</svg>
